<svg width="120" height="120" viewBox="0 0 120 120" fill="none" xmlns="http://www.w3.org/2000/svg">
<circle cx="60" cy="60" r="59.75" fill="#EEFFF0" stroke="#CBF4CF" stroke-width="0.5"/>
<g clip-path="url(#clip0_48_173)">
<path d="M60 100C52.0888 100 44.3552 97.6541 37.7772 93.2588C31.1992 88.8635 26.0723 82.6164 23.0448 75.3074C20.0173 67.9983 19.2252 59.9556 20.7686 52.1964C22.312 44.4372 26.1216 37.3098 31.7157 31.7157C37.3098 26.1216 44.4372 22.312 52.1964 20.7686C59.9556 19.2252 67.9983 20.0173 75.3074 23.0448C82.6164 26.0723 88.8635 31.1992 93.2588 37.7772C97.6541 44.3552 100 52.0888 100 60C100 70.6087 95.7858 80.7828 88.2843 88.2843C80.7828 95.7858 70.6087 100 60 100ZM60 26.1539C53.3059 26.1539 46.7621 28.1389 41.1961 31.858C35.6301 35.577 31.292 40.8631 28.7303 47.0477C26.1685 53.2322 25.4982 60.0376 26.8042 66.6031C28.1102 73.1686 31.3337 79.1994 36.0672 83.9329C40.8006 88.6663 46.8315 91.8899 53.397 93.1958C59.9625 94.5018 66.7678 93.8315 72.9524 91.2698C79.137 88.708 84.423 84.3699 88.1421 78.8039C91.8611 73.238 93.8462 66.6942 93.8462 60C93.8462 51.0235 90.2803 42.4146 83.9329 36.0672C77.5855 29.7198 68.9766 26.1539 60 26.1539Z" fill="#0E8A1A"/>
<path d="M55.3846 77.8461C54.9801 77.8424 54.5803 77.759 54.2081 77.6006C53.8359 77.4422 53.4986 77.2119 53.2154 76.923L39.0616 62.7846C38.5595 62.1942 38.2987 61.4361 38.3313 60.6617C38.364 59.8874 38.6876 59.1539 39.2376 58.6079C39.7875 58.0618 40.5233 57.7434 41.2978 57.7162C42.0723 57.6891 42.8286 57.9553 43.4154 58.4615L57.5539 72.6C57.9816 73.0302 58.2726 73.5773 58.3902 74.1725C58.5079 74.7676 58.447 75.3843 58.2152 75.9449C57.9833 76.5056 57.5909 76.9852 57.0873 77.3235C56.5837 77.6617 55.9913 77.8436 55.3846 77.8461Z" fill="#0E8A1A"/>
<path d="M55.3846 77.8462C54.7747 77.8467 54.1785 77.6659 53.6716 77.3269C53.1646 76.9879 52.7699 76.5059 52.5375 75.9421C52.305 75.3783 52.2453 74.7581 52.366 74.1603C52.4867 73.5625 52.7823 73.0141 53.2153 72.5847L76.5846 49.2308C77.1619 48.6535 77.945 48.3291 78.7615 48.3291C79.578 48.3291 80.361 48.6535 80.9384 49.2308C81.5158 49.8082 81.8401 50.5912 81.8401 51.4077C81.8401 52.2242 81.5158 53.0073 80.9384 53.5847L57.5538 76.9231C57.2706 77.212 56.9333 77.4423 56.5611 77.6007C56.1889 77.759 55.7891 77.8425 55.3846 77.8462Z" fill="#0E8A1A"/>
</g>
<defs>
<clipPath id="clip0_48_173">
<rect width="80" height="80" fill="white" transform="translate(20 20)"/>
</clipPath>
</defs>
</svg>
